<mxfile host="app.diagrams.net" modified="2024-06-06T15:53:25.862Z" agent="Mozilla/5.0 (Windows NT 10.0; Win64; x64) AppleWebKit/537.36 (KHTML, like Gecko) Chrome/125.0.0.0 Safari/537.36" etag="sXBNJInk0h7TMVimbqN9" version="24.4.15" type="device">
  <diagram name="Страница — 1" id="lW7iwMwdqVMZzQNHcuLF">
    <mxGraphModel dx="1050" dy="522" grid="1" gridSize="10" guides="1" tooltips="1" connect="1" arrows="1" fold="1" page="1" pageScale="1" pageWidth="827" pageHeight="1169" math="0" shadow="0">
      <root>
        <mxCell id="0" />
        <mxCell id="1" parent="0" />
        <mxCell id="Ud6Kpv8ppORvZ01vu115-4" style="edgeStyle=orthogonalEdgeStyle;rounded=0;orthogonalLoop=1;jettySize=auto;html=1;exitX=0.5;exitY=1;exitDx=0;exitDy=0;entryX=0.5;entryY=0;entryDx=0;entryDy=0;" parent="1" source="Ud6Kpv8ppORvZ01vu115-2" target="Ud6Kpv8ppORvZ01vu115-3" edge="1">
          <mxGeometry relative="1" as="geometry" />
        </mxCell>
        <mxCell id="Ud6Kpv8ppORvZ01vu115-2" value="&lt;font style=&quot;font-size: 14px;&quot;&gt;priority_search(value)&lt;/font&gt;" style="rounded=1;whiteSpace=wrap;html=1;arcSize=0;" parent="1" vertex="1">
          <mxGeometry x="50" y="150" width="170" height="60" as="geometry" />
        </mxCell>
        <mxCell id="Ud6Kpv8ppORvZ01vu115-6" style="edgeStyle=orthogonalEdgeStyle;rounded=0;orthogonalLoop=1;jettySize=auto;html=1;exitX=0.5;exitY=1;exitDx=0;exitDy=0;entryX=0.5;entryY=0;entryDx=0;entryDy=0;" parent="1" source="Ud6Kpv8ppORvZ01vu115-3" target="Ud6Kpv8ppORvZ01vu115-5" edge="1">
          <mxGeometry relative="1" as="geometry" />
        </mxCell>
        <mxCell id="Ud6Kpv8ppORvZ01vu115-3" value="&lt;font style=&quot;font-size: 14px;&quot;&gt;key, v in PRIORITY.items()&lt;/font&gt;" style="shape=loopLimit;whiteSpace=wrap;html=1;" parent="1" vertex="1">
          <mxGeometry x="60" y="250" width="150" height="60" as="geometry" />
        </mxCell>
        <mxCell id="Ud6Kpv8ppORvZ01vu115-8" style="edgeStyle=orthogonalEdgeStyle;rounded=0;orthogonalLoop=1;jettySize=auto;html=1;exitX=1;exitY=0.5;exitDx=0;exitDy=0;" parent="1" source="Ud6Kpv8ppORvZ01vu115-5" target="Ud6Kpv8ppORvZ01vu115-7" edge="1">
          <mxGeometry relative="1" as="geometry" />
        </mxCell>
        <mxCell id="Ud6Kpv8ppORvZ01vu115-9" value="Да" style="edgeLabel;html=1;align=center;verticalAlign=middle;resizable=0;points=[];fontSize=14;" parent="Ud6Kpv8ppORvZ01vu115-8" vertex="1" connectable="0">
          <mxGeometry x="-0.2174" y="3" relative="1" as="geometry">
            <mxPoint x="1" y="-7" as="offset" />
          </mxGeometry>
        </mxCell>
        <mxCell id="Ud6Kpv8ppORvZ01vu115-13" style="edgeStyle=orthogonalEdgeStyle;rounded=0;orthogonalLoop=1;jettySize=auto;html=1;exitX=0.5;exitY=1;exitDx=0;exitDy=0;entryX=0.5;entryY=1;entryDx=0;entryDy=0;" parent="1" source="Ud6Kpv8ppORvZ01vu115-5" target="Ud6Kpv8ppORvZ01vu115-12" edge="1">
          <mxGeometry relative="1" as="geometry" />
        </mxCell>
        <mxCell id="Ud6Kpv8ppORvZ01vu115-15" value="Нет" style="edgeLabel;html=1;align=center;verticalAlign=middle;resizable=0;points=[];fontSize=14;" parent="Ud6Kpv8ppORvZ01vu115-13" vertex="1" connectable="0">
          <mxGeometry x="-0.2885" y="2" relative="1" as="geometry">
            <mxPoint x="-17" as="offset" />
          </mxGeometry>
        </mxCell>
        <mxCell id="Ud6Kpv8ppORvZ01vu115-5" value="&lt;font style=&quot;font-size: 14px;&quot;&gt;value in v&lt;/font&gt;" style="rhombus;whiteSpace=wrap;html=1;" parent="1" vertex="1">
          <mxGeometry x="47.5" y="340" width="175" height="80" as="geometry" />
        </mxCell>
        <mxCell id="Ud6Kpv8ppORvZ01vu115-7" value="&lt;font style=&quot;font-size: 14px;&quot;&gt;return key&lt;/font&gt;" style="rounded=1;whiteSpace=wrap;html=1;arcSize=0;" parent="1" vertex="1">
          <mxGeometry x="280" y="350" width="120" height="60" as="geometry" />
        </mxCell>
        <mxCell id="Ud6Kpv8ppORvZ01vu115-10" value="&lt;font style=&quot;font-size: 14px;&quot;&gt;return -1&lt;/font&gt;" style="rounded=1;whiteSpace=wrap;html=1;arcSize=0;" parent="1" vertex="1">
          <mxGeometry x="75" y="550" width="120" height="60" as="geometry" />
        </mxCell>
        <mxCell id="Ud6Kpv8ppORvZ01vu115-14" style="edgeStyle=orthogonalEdgeStyle;rounded=0;orthogonalLoop=1;jettySize=auto;html=1;exitX=0.5;exitY=0;exitDx=0;exitDy=0;entryX=0.5;entryY=0;entryDx=0;entryDy=0;" parent="1" source="Ud6Kpv8ppORvZ01vu115-12" target="Ud6Kpv8ppORvZ01vu115-10" edge="1">
          <mxGeometry relative="1" as="geometry" />
        </mxCell>
        <mxCell id="Ud6Kpv8ppORvZ01vu115-12" value="&lt;font style=&quot;font-size: 14px;&quot;&gt;key, v in PRIORITY.items()&lt;/font&gt;" style="shape=loopLimit;whiteSpace=wrap;html=1;direction=west;" parent="1" vertex="1">
          <mxGeometry x="60" y="460" width="150" height="60" as="geometry" />
        </mxCell>
      </root>
    </mxGraphModel>
  </diagram>
</mxfile>
